<svg height='300px' width='300px'  fill="#ee2e2a" xmlns="http://www.w3.org/2000/svg" xmlns:xlink="http://www.w3.org/1999/xlink" version="1.1" x="0px" y="0px" viewBox="0 0 100 100" enable-background="new 0 0 100 100" xml:space="preserve"><path d="M42.634,80.5c-0.387,0-0.776-0.074-1.147-0.229c-1.122-0.464-1.853-1.558-1.853-2.771V43.652L20.603,24.621  c-0.858-0.858-1.114-2.148-0.65-3.269s1.558-1.852,2.771-1.852h54.55c1.214,0,2.308,0.731,2.771,1.853  c0.465,1.121,0.208,2.412-0.65,3.27L60.614,43.393V62.51c0,0.795-0.315,1.558-0.878,2.121L44.756,79.62  C44.183,80.195,43.415,80.5,42.634,80.5z M29.967,25.5l14.789,14.789c0.562,0.562,0.878,1.326,0.878,2.121v27.844l8.98-8.986V42.149  c0-0.796,0.316-1.559,0.879-2.122L70.029,25.5H29.967z"></path></svg>