<svg height='300px' width='300px'  fill="#ffffff" xmlns="http://www.w3.org/2000/svg" xmlns:xlink="http://www.w3.org/1999/xlink" version="1.1" x="0px" y="0px" viewBox="0 0 100 100" enable-background="new 0 0 100 100" xml:space="preserve"><path fill="#ffffff" d="M50.001,95.063c24.845,0,45.062-20.215,45.062-45.063S74.846,4.938,50.001,4.938  C25.151,4.938,4.938,25.152,4.938,50S25.151,95.063,50.001,95.063z M40.268,35.469c-1.713-1.717-1.713-4.498,0.005-6.216  c1.717-1.718,4.499-1.718,6.217,0l17.637,17.642c1.713,1.717,1.717,4.498,0,6.217L46.489,70.746c-1.718,1.719-4.504,1.719-6.217,0  c-0.858-0.857-1.288-1.982-1.288-3.107s0.43-2.25,1.288-3.107l14.528-14.529L40.268,35.469z"></path></svg>