<svg height='300px' width='300px'  fill="#ffffff" xmlns="http://www.w3.org/2000/svg" xmlns:xlink="http://www.w3.org/1999/xlink" version="1.1" x="0px" y="0px" viewBox="0 0 100 100" enable-background="new 0 0 100 100" xml:space="preserve"><path fill="#ffffff" d="M50.001,4.938C25.153,4.938,4.938,25.152,4.938,50s20.215,45.063,45.063,45.063  c24.847,0,45.062-20.215,45.062-45.063S74.848,4.938,50.001,4.938z M59.731,64.531c1.713,1.717,1.715,4.498-0.002,6.215  c-1.718,1.719-4.502,1.719-6.219,0L35.874,53.105c-1.713-1.717-1.716-4.498,0.002-6.217l17.637-17.636  c1.715-1.718,4.502-1.718,6.217,0c0.858,0.858,1.288,1.983,1.288,3.108s-0.43,2.25-1.288,3.107L45.201,49.998L59.731,64.531z"></path></svg>