<svg height='300px' width='300px'  fill="#000000" xmlns="http://www.w3.org/2000/svg" viewBox="0 0 32 32" x="0px" y="0px"><defs><style>.cls-1{fill-rule:evenodd;}</style></defs><title>heart</title><g><path class="cls-1" d="M28.451,4.406A8.722,8.722,0,0,0,16,5.89h0A8.722,8.722,0,0,0,3.549,4.406C.32,7.254.111,12.949,3.338,18.645c2.134,4.021,7.585,8.085,12.154,10.772a1,1,0,0,0,1.014,0c4.572-2.689,10.028-6.756,12.164-10.79C31.889,12.943,31.678,7.253,28.451,4.406ZM26.919,17.662l-.014.026c-1.914,3.617-6.744,7.2-10.905,9.7-4.162-2.5-8.992-6.087-10.906-9.7l-.014-.026A14.509,14.509,0,0,1,3,10.68,6.156,6.156,0,0,1,4.872,5.905,6.8,6.8,0,0,1,15.133,8.174a1,1,0,0,0,1.733,0A6.8,6.8,0,0,1,27.128,5.905,6.156,6.156,0,0,1,29,10.68,14.506,14.506,0,0,1,26.919,17.662Z"></path></g></svg>