<svg width="40" height="40" viewBox="0 0 40 40" fill="none" xmlns="http://www.w3.org/2000/svg">
<g opacity="0.8">
<path d="M20 38.3125C30.1137 38.3125 38.3125 30.1137 38.3125 20C38.3125 9.88628 30.1137 1.6875 20 1.6875C9.88628 1.6875 1.6875 9.88628 1.6875 20C1.6875 30.1137 9.88628 38.3125 20 38.3125Z" fill="white"/>
<path d="M38.6873 20C38.6873 19.5625 38.8123 13.1875 35.0623 9.0625C34.8748 8.6875 34.1248 7.1875 31.5623 5.375C29.8748 4.0625 28.1248 3.125 27.9373 3C27.7498 2.875 24.6248 1.25 20.8748 1.25C20.5623 1.25 20.3123 1.25 19.9998 1.3125C17.1248 1.25 14.4998 2 12.5623 2.875C10.5623 3.75 9.24978 4.625 9.12478 4.75C6.99978 5.9375 2.93728 10.6875 2.62478 13.25C1.31228 14.875 0.249777 22.3125 2.62478 26.8125C4.31228 33.0625 10.5623 36.1875 11.0623 36.4375C11.3748 36.625 14.7498 38.75 18.9373 38.75H19.4998C19.8748 38.8125 20.1873 38.8125 20.5623 38.8125C25.0623 38.8125 31.8123 35.625 33.1873 33.125C37.0623 30.25 39.0623 23 38.6873 20V20ZM11.1248 29.4375C9.31228 26.5625 8.31228 22.75 8.06228 21.875C8.62478 21 11.4373 16.875 12.9998 15.625C13.8748 15.8125 17.6873 16.5 21.2498 17.125C21.6873 18.3125 23.6873 23.375 24.2498 25.375C23.6248 26.125 21.1873 28.9375 18.8123 31.125C16.2498 31.1875 11.9373 29.6875 11.1248 29.4375V29.4375ZM33.6248 9.125C33.6248 9.375 33.5623 10.375 33.0623 11.5625C32.1248 11.0625 29.7498 10.0625 26.4373 9.875C25.9373 9.125 24.0623 6.5625 21.1248 4.8125C21.4998 4 22.0623 3.0625 22.4373 2.75C22.5623 2.75 22.6873 2.6875 22.9373 2.6875C24.4998 2.6875 27.2498 3.75 27.4998 3.8125C27.7498 3.9375 32.6873 6.5625 33.6248 9.125ZM7.37478 21.25C5.24978 20.875 3.93728 20.25 3.56228 20C2.74978 17.125 3.43728 14 3.49978 13.5625C4.31228 12.1875 6.49978 8.5625 7.99978 7.875C9.49978 7.5625 11.4373 7.9375 12.1873 8.125C12.1248 9.125 11.9998 11.9375 12.3748 14.9375C10.7498 16.3125 8.06228 20.25 7.37478 21.25ZM19.8123 2.1875C20.3123 2.25 20.9998 2.3125 21.4998 2.5C20.9998 3.125 20.4998 4.0625 20.3123 4.5625C19.3123 4.75 15.6248 5.4375 12.6873 7.3125C12.1248 7.1875 10.3123 6.75 8.62478 6.875C9.06228 6.0625 9.68728 5.5 9.74978 5.4375C9.93728 5.25 14.3748 2.125 19.8123 2.1875V2.1875ZM31.7498 26C30.9998 26 28.1873 25.8125 25.1248 25.0625C24.5623 23 22.5623 17.9375 22.1248 16.75C24.0623 14 25.9373 11.4375 26.4373 10.6875C29.9998 10.9375 32.4998 12.25 32.9998 12.5C35.0623 15.8125 35.4998 19.1875 35.5623 19.75C34.4373 23.1875 32.3123 25.5 31.7498 26ZM2.31228 17.8125C2.37478 18.625 2.49978 19.4375 2.74978 20.25C2.56228 20.8125 2.37478 21.375 2.31228 21.9375C2.12478 20.5 2.12478 19.0625 2.31228 17.8125ZM11.5623 35.625L11.3123 36L11.5623 35.625C9.99978 34.875 8.81228 33.125 8.31228 32.4375C9.24978 31.5 10.4373 30.625 10.8748 30.3125C11.8748 30.6875 16.0623 32.0625 18.7498 32.0625C19.1873 32.6875 20.6873 34.5625 22.4998 36.0625C21.3748 37.1875 19.7498 37.6875 19.4373 37.8125C15.1873 37.9375 11.5623 35.625 11.5623 35.625V35.625ZM21.7498 37.75C22.3123 37.4375 22.9373 37 23.4373 36.4375C24.2498 36.3125 27.7498 35.75 30.8748 33.4375C31.0623 33.4375 31.4373 33.5 31.8123 33.5C29.8748 35.3125 25.2498 37.375 21.7498 37.75ZM31.3748 32.5C32.4998 29.5625 32.4373 27.3125 32.3748 26.625C32.9998 26 35.1248 23.75 36.3123 20.3125C36.9373 20.4375 37.3748 20.5625 37.5623 20.6875C37.6248 20.9375 37.7498 21.5 37.6873 22.375C37.1873 25.5 35.5623 30.25 32.6248 32.3125C32.3123 32.5 31.8123 32.5625 31.3748 32.5Z" fill="#D81C67"/>
</g>
</svg>
