<svg width="22" height="18" viewBox="0 0 22 18" fill="none" xmlns="http://www.w3.org/2000/svg">
<path d="M20.5 -4.52342e-05H17.8333V1.99995C17.8333 2.19256 17.7954 2.38328 17.7217 2.56122C17.648 2.73917 17.5399 2.90085 17.4038 3.03705C17.2676 3.17324 17.1059 3.28127 16.9279 3.35498C16.75 3.42868 16.5593 3.46662 16.3667 3.46662C16.1741 3.46662 15.9833 3.42868 15.8054 3.35498C15.6275 3.28127 15.4658 3.17324 15.3296 3.03705C15.1934 2.90085 15.0854 2.73917 15.0116 2.56122C14.9379 2.38328 14.9 2.19256 14.9 1.99995V-4.52342e-05H7.13333V1.99995C7.13333 2.38894 6.97881 2.76199 6.70376 3.03704C6.4287 3.3121 6.05565 3.46662 5.66667 3.46662C5.27768 3.46662 4.90463 3.3121 4.62958 3.03704C4.35452 2.76199 4.2 2.38894 4.2 1.99995V-4.52342e-05H1.53333C1.37468 -0.00185066 1.21728 0.0281773 1.07043 0.0882628C0.92359 0.148348 0.790287 0.237271 0.678407 0.349772C0.566528 0.462273 0.478345 0.596067 0.419074 0.743242C0.359803 0.890417 0.330647 1.04798 0.333332 1.20662V16.1266C0.330683 16.2825 0.358761 16.4373 0.415962 16.5823C0.473163 16.7273 0.558367 16.8596 0.666706 16.9716C0.775045 17.0837 0.904398 17.1733 1.04738 17.2353C1.19035 17.2974 1.34416 17.3307 1.5 17.3333H20.5C20.6558 17.3307 20.8096 17.2974 20.9526 17.2353C21.0956 17.1733 21.225 17.0837 21.3333 16.9716C21.4416 16.8596 21.5268 16.7273 21.584 16.5823C21.6412 16.4373 21.6693 16.2825 21.6667 16.1266V1.20662C21.6693 1.05078 21.6412 0.895944 21.584 0.750956C21.5268 0.605968 21.4416 0.473669 21.3333 0.361615C21.225 0.249561 21.0956 0.159948 20.9526 0.0978933C20.8096 0.0358389 20.6558 0.00255917 20.5 -4.52342e-05ZM5.66667 13.3333H4.33333V12H5.66667V13.3333ZM5.66667 9.99996H4.33333V8.66662H5.66667V9.99996ZM5.66667 6.66662H4.33333V5.33329H5.66667V6.66662ZM9.66667 13.3333H8.33333V12H9.66667V13.3333ZM9.66667 9.99996H8.33333V8.66662H9.66667V9.99996ZM9.66667 6.66662H8.33333V5.33329H9.66667V6.66662ZM13.6667 13.3333H12.3333V12H13.6667V13.3333ZM13.6667 9.99996H12.3333V8.66662H13.6667V9.99996ZM13.6667 6.66662H12.3333V5.33329H13.6667V6.66662ZM17.6667 13.3333H16.3333V12H17.6667V13.3333ZM17.6667 9.99996H16.3333V8.66662H17.6667V9.99996ZM17.6667 6.66662H16.3333V5.33329H17.6667V6.66662Z" fill="#D81C67"/>
</svg>
