<svg width="49" height="49" viewBox="0 0 49 49" fill="none" xmlns="http://www.w3.org/2000/svg">
<path d="M38.9343 10.0654C35.0837 6.34637 29.9264 4.28848 24.5732 4.335C19.2201 4.38152 14.0993 6.52872 10.3139 10.3141C6.52847 14.0995 4.38127 19.2203 4.33476 24.5735C4.28824 29.9267 6.34612 35.084 10.0652 38.9346C13.9158 42.6537 19.0731 44.7115 24.4263 44.665C29.7795 44.6185 34.9002 42.4713 38.6856 38.6859C42.4711 34.9005 44.6183 29.7797 44.6648 24.4265C44.7113 19.0734 42.6534 13.9161 38.9343 10.0654ZM12.9439 12.9442C15.2443 10.6429 18.1795 9.08113 21.3733 8.4591C24.5671 7.83707 27.8739 8.18314 30.8698 9.45293L30.2777 10.0654L31.7273 11.515L32.7889 10.4329C33.3809 10.7901 33.9533 11.1786 34.5039 11.5967L11.5964 34.5042C11.1783 33.9536 10.7899 33.3811 10.4327 32.7892L11.5148 31.7275L10.0652 30.2779L9.4731 30.87C8.20076 27.8761 7.85139 24.5705 8.46977 21.3768C9.08814 18.1831 10.6461 15.2468 12.9439 12.9442ZM36.0556 36.0558C33.7553 38.3571 30.82 39.9189 27.6262 40.5409C24.4324 41.163 21.1256 40.8169 18.1298 39.5471L18.7219 38.9346L17.2723 37.485L16.2106 38.5671C15.6187 38.2099 15.0462 37.8215 14.4956 37.4033L37.4031 14.4958C37.8212 15.0464 38.2097 15.6189 38.5668 16.2108L37.4848 17.2725L38.9343 18.7221L39.5264 18.13C40.7988 21.1239 41.1481 24.4295 40.5298 27.6232C39.9114 30.8169 38.3535 33.7532 36.0556 36.0558ZM23.0502 31.7275L24.4998 33.1567L21.621 36.0558L20.1714 34.7083L23.0502 31.7275ZM28.8281 25.9496L30.2777 27.3788L27.3785 30.2779L25.9493 28.8283L28.8281 25.9496ZM34.7081 20.1717L36.1577 21.6213L33.1564 24.5L31.7273 23.0504L34.7081 20.1717ZM25.9493 17.2725L24.4998 15.8433L27.3785 12.9442L28.8281 14.3938L25.9493 17.2725ZM20.1714 23.0504L18.7219 21.6213L21.621 18.7221L23.0502 20.1717L20.1714 23.0504ZM14.3935 28.8283L12.9439 27.3788L15.8431 24.5L17.2723 25.9496L14.3935 28.8283Z" fill="#D81C67"/>
</svg>
