<svg width="16" height="16" viewBox="0 0 16 16" fill="none" xmlns="http://www.w3.org/2000/svg">
<path d="M1.33333 8.83333H6.33333C6.55435 8.83333 6.76631 8.74554 6.92259 8.58926C7.07887 8.43297 7.16667 8.22101 7.16667 8V1.33333C7.16667 1.11232 7.07887 0.900358 6.92259 0.744078C6.76631 0.587797 6.55435 0.5 6.33333 0.5H1.33333C1.11232 0.5 0.900358 0.587797 0.744078 0.744078C0.587797 0.900358 0.5 1.11232 0.5 1.33333V8C0.5 8.22101 0.587797 8.43297 0.744078 8.58926C0.900358 8.74554 1.11232 8.83333 1.33333 8.83333ZM0.5 14.6667C0.5 14.8877 0.587797 15.0996 0.744078 15.2559C0.900358 15.4122 1.11232 15.5 1.33333 15.5H6.33333C6.55435 15.5 6.76631 15.4122 6.92259 15.2559C7.07887 15.0996 7.16667 14.8877 7.16667 14.6667V11.3333C7.16667 11.1123 7.07887 10.9004 6.92259 10.7441C6.76631 10.5878 6.55435 10.5 6.33333 10.5H1.33333C1.11232 10.5 0.900358 10.5878 0.744078 10.7441C0.587797 10.9004 0.5 11.1123 0.5 11.3333V14.6667ZM8.83333 14.6667C8.83333 14.8877 8.92113 15.0996 9.07741 15.2559C9.23369 15.4122 9.44565 15.5 9.66667 15.5H14.6667C14.8877 15.5 15.0996 15.4122 15.2559 15.2559C15.4122 15.0996 15.5 14.8877 15.5 14.6667V8.83333C15.5 8.61232 15.4122 8.40036 15.2559 8.24408C15.0996 8.0878 14.8877 8 14.6667 8H9.66667C9.44565 8 9.23369 8.0878 9.07741 8.24408C8.92113 8.40036 8.83333 8.61232 8.83333 8.83333V14.6667ZM9.66667 6.33333H14.6667C14.8877 6.33333 15.0996 6.24554 15.2559 6.08926C15.4122 5.93297 15.5 5.72101 15.5 5.5V1.33333C15.5 1.11232 15.4122 0.900358 15.2559 0.744078C15.0996 0.587797 14.8877 0.5 14.6667 0.5H9.66667C9.44565 0.5 9.23369 0.587797 9.07741 0.744078C8.92113 0.900358 8.83333 1.11232 8.83333 1.33333V5.5C8.83333 5.72101 8.92113 5.93297 9.07741 6.08926C9.23369 6.24554 9.44565 6.33333 9.66667 6.33333Z" fill="#243358"/>
</svg>
