<svg width="24" height="24" viewBox="0 0 24 24" fill="none" xmlns="http://www.w3.org/2000/svg">
<path d="M21.4998 3.99995H18.8332V5.99995C18.8332 6.19256 18.7952 6.38328 18.7215 6.56122C18.6478 6.73917 18.5398 6.90085 18.4036 7.03705C18.2674 7.17324 18.1057 7.28127 17.9278 7.35498C17.7498 7.42868 17.5591 7.46662 17.3665 7.46662C17.1739 7.46662 16.9832 7.42868 16.8052 7.35498C16.6273 7.28127 16.4656 7.17324 16.3294 7.03705C16.1932 6.90085 16.0852 6.73917 16.0115 6.56122C15.9378 6.38328 15.8998 6.19256 15.8998 5.99995V3.99995H8.13318V5.99995C8.13318 6.38894 7.97866 6.76199 7.7036 7.03704C7.42855 7.3121 7.0555 7.46662 6.66651 7.46662C6.27753 7.46662 5.90448 7.3121 5.62942 7.03704C5.35437 6.76199 5.19985 6.38894 5.19985 5.99995V3.99995H2.53318C2.37453 3.99815 2.21713 4.02818 2.07028 4.08826C1.92344 4.14835 1.79013 4.23727 1.67825 4.34977C1.56638 4.46227 1.47819 4.59607 1.41892 4.74324C1.35965 4.89042 1.33049 5.04798 1.33318 5.20662V20.1266C1.33053 20.2825 1.35861 20.4373 1.41581 20.5823C1.47301 20.7273 1.55821 20.8596 1.66655 20.9716C1.77489 21.0837 1.90425 21.1733 2.04722 21.2353C2.1902 21.2974 2.344 21.3307 2.49985 21.3333H21.4998C21.6557 21.3307 21.8095 21.2974 21.9525 21.2353C22.0954 21.1733 22.2248 21.0837 22.3331 20.9716C22.4415 20.8596 22.5267 20.7273 22.5839 20.5823C22.6411 20.4373 22.6692 20.2825 22.6665 20.1266V5.20662C22.6692 5.05078 22.6411 4.89594 22.5839 4.75096C22.5267 4.60597 22.4415 4.47367 22.3331 4.36162C22.2248 4.24956 22.0954 4.15995 21.9525 4.09789C21.8095 4.03584 21.6557 4.00256 21.4998 3.99995ZM6.66651 17.3333H5.33318V16H6.66651V17.3333ZM6.66651 14H5.33318V12.6666H6.66651V14ZM6.66651 10.6666H5.33318V9.33329H6.66651V10.6666ZM10.6665 17.3333H9.33318V16H10.6665V17.3333ZM10.6665 14H9.33318V12.6666H10.6665V14ZM10.6665 10.6666H9.33318V9.33329H10.6665V10.6666ZM14.6665 17.3333H13.3332V16H14.6665V17.3333ZM14.6665 14H13.3332V12.6666H14.6665V14ZM14.6665 10.6666H13.3332V9.33329H14.6665V10.6666ZM18.6665 17.3333H17.3332V16H18.6665V17.3333ZM18.6665 14H17.3332V12.6666H18.6665V14ZM18.6665 10.6666H17.3332V9.33329H18.6665V10.6666Z" fill="#D81C67" fill-opacity="1"/>
<path d="M6.66667 6.66671C6.84348 6.66671 7.01305 6.59647 7.13807 6.47145C7.2631 6.34642 7.33333 6.17685 7.33333 6.00004V2.00004C7.33333 1.82323 7.2631 1.65366 7.13807 1.52864C7.01305 1.40361 6.84348 1.33337 6.66667 1.33337C6.48986 1.33337 6.32029 1.40361 6.19526 1.52864C6.07024 1.65366 6 1.82323 6 2.00004V6.00004C6 6.17685 6.07024 6.34642 6.19526 6.47145C6.32029 6.59647 6.48986 6.66671 6.66667 6.66671Z" fill="#D81C67" fill-opacity="1"/>
<path d="M17.3332 6.66671C17.51 6.66671 17.6796 6.59647 17.8046 6.47145C17.9296 6.34642 17.9998 6.17685 17.9998 6.00004V2.00004C17.9998 1.82323 17.9296 1.65366 17.8046 1.52864C17.6796 1.40361 17.51 1.33337 17.3332 1.33337C17.1564 1.33337 16.9868 1.40361 16.8618 1.52864C16.7367 1.65366 16.6665 1.82323 16.6665 2.00004V6.00004C16.6665 6.17685 16.7367 6.34642 16.8618 6.47145C16.9868 6.59647 17.1564 6.66671 17.3332 6.66671Z" fill="#D81C67" fill-opacity="1"/>
</svg>
