<svg width="16" height="16" viewBox="0 0 16 16" fill="none" xmlns="http://www.w3.org/2000/svg">
<path d="M15.475 8C15.475 7.825 15.525 5.275 14.025 3.625C13.95 3.475 13.65 2.875 12.625 2.15C11.95 1.625 11.25 1.25 11.175 1.2C11.1 1.15 9.85001 0.5 8.35001 0.5C8.22501 0.5 8.12501 0.5 8.00001 0.525C6.85001 0.5 5.80001 0.8 5.02501 1.15C4.22501 1.5 3.70001 1.85 3.65001 1.9C2.80001 2.375 1.17501 4.275 1.05001 5.3C0.525008 5.95 0.100008 8.925 1.05001 10.725C1.72501 13.225 4.22501 14.475 4.42501 14.575C4.55001 14.65 5.90001 15.5 7.57501 15.5H7.80001C7.95001 15.525 8.07501 15.525 8.22501 15.525C10.025 15.525 12.725 14.25 13.275 13.25C14.825 12.1 15.625 9.2 15.475 8ZM4.45001 11.775C3.72501 10.625 3.32501 9.1 3.22501 8.75C3.45001 8.4 4.57501 6.75 5.20001 6.25C5.55001 6.325 7.07501 6.6 8.50001 6.85C8.67501 7.325 9.47501 9.35 9.70001 10.15C9.45001 10.45 8.47501 11.575 7.52501 12.45C6.50001 12.475 4.77501 11.875 4.45001 11.775ZM13.45 3.65C13.45 3.75 13.425 4.15 13.225 4.625C12.85 4.425 11.9 4.025 10.575 3.95C10.375 3.65 9.62501 2.625 8.45001 1.925C8.60001 1.6 8.82501 1.225 8.97501 1.1C9.02501 1.1 9.07501 1.075 9.17501 1.075C9.80001 1.075 10.9 1.5 11 1.525C11.1 1.575 13.075 2.625 13.45 3.65ZM2.95001 8.5C2.10001 8.35 1.57501 8.1 1.42501 8C1.10001 6.85 1.37501 5.6 1.40001 5.425C1.72501 4.875 2.60001 3.425 3.20001 3.15C3.80001 3.025 4.57501 3.175 4.87501 3.25C4.85001 3.65 4.80001 4.775 4.95001 5.975C4.30001 6.525 3.22501 8.1 2.95001 8.5ZM7.92501 0.875C8.12501 0.9 8.40001 0.925 8.60001 1C8.40001 1.25 8.20001 1.625 8.12501 1.825C7.72501 1.9 6.25001 2.175 5.07501 2.925C4.85001 2.875 4.12501 2.7 3.45001 2.75C3.62501 2.425 3.87501 2.2 3.90001 2.175C3.97501 2.1 5.75001 0.85 7.92501 0.875ZM12.7 10.4C12.4 10.4 11.275 10.325 10.05 10.025C9.82501 9.2 9.02501 7.175 8.85001 6.7C9.62501 5.6 10.375 4.575 10.575 4.275C12 4.375 13 4.9 13.2 5C14.025 6.325 14.2 7.675 14.225 7.9C13.775 9.275 12.925 10.2 12.7 10.4ZM0.925008 7.125C0.950008 7.45 1.00001 7.775 1.10001 8.1C1.02501 8.325 0.950008 8.55 0.925008 8.775C0.850008 8.2 0.850008 7.625 0.925008 7.125ZM4.62501 14.25L4.52501 14.4L4.62501 14.25C4.00001 13.95 3.52501 13.25 3.32501 12.975C3.70001 12.6 4.17501 12.25 4.35001 12.125C4.75001 12.275 6.42501 12.825 7.50001 12.825C7.67501 13.075 8.27501 13.825 9.00001 14.425C8.55001 14.875 7.90001 15.075 7.77501 15.125C6.07501 15.175 4.62501 14.25 4.62501 14.25ZM8.70001 15.1C8.92501 14.975 9.17501 14.8 9.37501 14.575C9.70001 14.525 11.1 14.3 12.35 13.375C12.425 13.375 12.575 13.4 12.725 13.4C11.95 14.125 10.1 14.95 8.70001 15.1ZM12.55 13C13 11.825 12.975 10.925 12.95 10.65C13.2 10.4 14.05 9.5 14.525 8.125C14.775 8.175 14.95 8.225 15.025 8.275C15.05 8.375 15.1 8.6 15.075 8.95C14.875 10.2 14.225 12.1 13.05 12.925C12.925 13 12.725 13.025 12.55 13Z" fill="#D81C67"/>
</svg>
