<svg width="18" height="16" viewBox="0 0 18 16" fill="none" xmlns="http://www.w3.org/2000/svg">
<path d="M9.83333 11.3333V12.1666C9.83333 12.8297 9.56994 13.4656 9.1011 13.9344C8.63226 14.4033 7.99637 14.6666 7.33333 14.6666H4C3.33696 14.6666 2.70107 14.4033 2.23223 13.9344C1.76339 13.4656 1.5 12.8297 1.5 12.1666V3.83331C1.5 3.17027 1.76339 2.53439 2.23223 2.06555C2.70107 1.59671 3.33696 1.33331 4 1.33331H7.33333C7.99637 1.33331 8.63226 1.59671 9.1011 2.06555C9.56994 2.53439 9.83333 3.17027 9.83333 3.83331V4.66665M13.1667 11.3333L16.5 7.99998L13.1667 11.3333ZM16.5 7.99998L13.1667 4.66665L16.5 7.99998ZM16.5 7.99998H4.83333H16.5Z" stroke="#243358" stroke-width="2" stroke-linecap="round" stroke-linejoin="round"/>
</svg>
