<svg width="19" height="4" viewBox="0 0 19 4" fill="none" xmlns="http://www.w3.org/2000/svg">
<path d="M2.28882 2H2.29922H2.28882ZM9.56739 2H9.57779H9.56739ZM16.846 2H16.8564H16.846ZM3.32862 2C3.32862 2.26522 3.21907 2.51957 3.02407 2.70711C2.82907 2.89464 2.56459 3 2.28882 3C2.01305 3 1.74857 2.89464 1.55357 2.70711C1.35857 2.51957 1.24902 2.26522 1.24902 2C1.24902 1.73478 1.35857 1.48043 1.55357 1.29289C1.74857 1.10536 2.01305 1 2.28882 1C2.56459 1 2.82907 1.10536 3.02407 1.29289C3.21907 1.48043 3.32862 1.73478 3.32862 2V2ZM10.6072 2C10.6072 2.26522 10.4976 2.51957 10.3026 2.70711C10.1076 2.89464 9.84316 3 9.56739 3C9.29162 3 9.02714 2.89464 8.83214 2.70711C8.63714 2.51957 8.52759 2.26522 8.52759 2C8.52759 1.73478 8.63714 1.48043 8.83214 1.29289C9.02714 1.10536 9.29162 1 9.56739 1C9.84316 1 10.1076 1.10536 10.3026 1.29289C10.4976 1.48043 10.6072 1.73478 10.6072 2V2ZM17.8858 2C17.8858 2.26522 17.7762 2.51957 17.5812 2.70711C17.3862 2.89464 17.1217 3 16.846 3C16.5702 3 16.3057 2.89464 16.1107 2.70711C15.9157 2.51957 15.8062 2.26522 15.8062 2C15.8062 1.73478 15.9157 1.48043 16.1107 1.29289C16.3057 1.10536 16.5702 1 16.846 1C17.1217 1 17.3862 1.10536 17.5812 1.29289C17.7762 1.48043 17.8858 1.73478 17.8858 2V2Z" stroke="#243358" stroke-width="2" stroke-linecap="round" stroke-linejoin="round"/>
</svg>
