<svg width="17" height="18" viewBox="0 0 17 18" fill="none" xmlns="http://www.w3.org/2000/svg">
<path d="M16.4119 6.85668L11.3275 6.0829L9.05471 1.25779C8.99264 1.12568 8.89051 1.01873 8.76435 0.953729C8.44796 0.790166 8.06348 0.926468 7.90528 1.25779L5.63245 6.0829L0.548129 6.85668C0.407955 6.87765 0.279795 6.94685 0.181673 7.05169C0.0630487 7.17937 -0.00231862 7.35114 -6.57083e-05 7.52926C0.0021872 7.70738 0.071876 7.87728 0.193688 8.00162L3.87226 11.7573L3.00318 17.0605C2.9828 17.1839 2.99584 17.3107 3.04081 17.4267C3.08579 17.5427 3.1609 17.6432 3.25764 17.7168C3.35437 17.7904 3.46886 17.8341 3.58811 17.843C3.70736 17.8519 3.82661 17.8256 3.93234 17.7672L8.48 15.2634L13.0277 17.7672C13.1518 17.8364 13.296 17.8594 13.4342 17.8343C13.7826 17.7714 14.0169 17.4254 13.9568 17.0605L13.0877 11.7573L16.7663 8.00162C16.8664 7.89887 16.9325 7.76466 16.9525 7.61787C17.0066 7.2509 16.7623 6.9112 16.4119 6.85668Z" fill="#D81C67"/>
</svg>
