<svg width="18" height="18" viewBox="0 0 18 18" fill="none" xmlns="http://www.w3.org/2000/svg">
<path d="M6.99976 0H0.999756C0.734539 0 0.480185 0.105357 0.292649 0.292893C0.105113 0.48043 -0.000244141 0.734784 -0.000244141 1V7C-0.000244141 7.26522 0.105113 7.51957 0.292649 7.70711C0.480185 7.89464 0.734539 8 0.999756 8H6.99976C7.26497 8 7.51933 7.89464 7.70686 7.70711C7.8944 7.51957 7.99976 7.26522 7.99976 7V1C7.99976 0.734784 7.8944 0.48043 7.70686 0.292893C7.51933 0.105357 7.26497 0 6.99976 0ZM16.9998 10H10.9998C10.7345 10 10.4802 10.1054 10.2926 10.2929C10.1051 10.4804 9.99976 10.7348 9.99976 11V17C9.99976 17.2652 10.1051 17.5196 10.2926 17.7071C10.4802 17.8946 10.7345 18 10.9998 18H16.9998C17.265 18 17.5193 17.8946 17.7069 17.7071C17.8944 17.5196 17.9998 17.2652 17.9998 17V11C17.9998 10.7348 17.8944 10.4804 17.7069 10.2929C17.5193 10.1054 17.265 10 16.9998 10ZM13.9998 0C11.7938 0 9.99976 1.794 9.99976 4C9.99976 6.206 11.7938 8 13.9998 8C16.2058 8 17.9998 6.206 17.9998 4C17.9998 1.794 16.2058 0 13.9998 0ZM3.99976 10C1.79376 10 -0.000244141 11.794 -0.000244141 14C-0.000244141 16.206 1.79376 18 3.99976 18C6.20576 18 7.99976 16.206 7.99976 14C7.99976 11.794 6.20576 10 3.99976 10Z" fill="#D81C67" fill-opacity="0.8"/>
</svg>
