<svg width="36" height="36" viewBox="0 0 36 36" fill="none" xmlns="http://www.w3.org/2000/svg">
<path d="M15.4089 0.724219C12.2298 1.16719 9.15242 2.41875 6.53952 4.50703L12.1573 9.94922C14.175 7.43203 15.3 4.23984 15.4089 0.724219ZM18 15.6094L29.4605 4.50703C26.3831 2.04609 22.6669 0.745312 18.9 0.5625C18.8129 5.05547 17.3395 9.16172 14.6395 12.3539L18 15.6094ZM4.07177 6.89766C1.91613 9.42891 0.624194 12.4102 0.166935 15.4898C3.79597 15.3844 7.09839 14.2945 9.68952 12.3398L4.07177 6.89766ZM23.8282 21.2555C27.1161 18.6469 31.3548 17.2195 36 17.1281C35.8113 13.4789 34.4685 9.87891 31.9282 6.89766L20.4677 18L23.8282 21.2555ZM18 20.3906L6.53952 31.493C9.61693 33.9469 13.3331 35.2547 17.1 35.4375C17.1944 30.9375 18.6677 26.8312 21.3605 23.6461L18 20.3906ZM31.9282 29.1023C34.0839 26.5711 35.3758 23.5898 35.8331 20.5102C32.1968 20.6227 28.9016 21.7125 26.3105 23.6602L31.9282 29.1023ZM12.1718 14.7445C8.87661 17.3602 4.6379 18.7945 0 18.8719C0.18871 22.5211 1.53145 26.1211 4.07177 29.1023L15.5323 18L12.1718 14.7445ZM20.5911 35.2758C23.7702 34.8328 26.8476 33.5812 29.4605 31.493L23.8427 26.0508C21.8323 28.5609 20.7073 31.7602 20.5911 35.2758Z" fill="#D81C67"/>
</svg>
