<svg width="36" height="36" viewBox="0 0 36 36" fill="none" xmlns="http://www.w3.org/2000/svg">
<path d="M7.39367 28.6065C10.0673 31.2777 13.6545 32.8355 17.4317 32.9655C16.7372 28.806 17.9792 24.384 21.1817 21.1815C24.3857 17.979 28.8062 16.737 32.9657 17.4315C32.8277 13.782 31.3862 10.173 28.6067 7.39355C25.8272 4.61405 22.2167 3.17255 18.5687 3.03455C19.2632 7.19405 18.0212 11.616 14.8187 14.8185C11.6147 18.021 7.19417 19.263 3.03467 18.5685C3.16341 22.346 4.72136 25.9337 7.39367 28.6065V28.6065Z" fill="#D81C67"/>
<path d="M23.3027 23.3025C22.0819 24.5242 21.1816 26.0285 20.6816 27.6816C20.1815 29.3348 20.0973 31.0859 20.4362 32.7795C23.5308 32.2825 26.3897 30.8219 28.606 28.6057C30.8222 26.3894 32.2828 23.5305 32.7797 20.436C31.0862 20.0974 29.3352 20.1818 27.6821 20.6819C26.029 21.1819 24.5247 22.082 23.3027 23.3025V23.3025ZM12.6977 12.6975C13.9185 11.4757 14.8189 9.97146 15.3189 8.31827C15.819 6.66508 15.9032 4.91403 15.5642 3.22046C12.4694 3.71715 9.61014 5.17759 7.39362 7.39385C5.1771 9.6101 3.7163 12.4692 3.21924 15.564C4.91304 15.9027 6.66425 15.8183 8.31763 15.3183C9.97101 14.8182 11.4755 13.918 12.6977 12.6975V12.6975Z" fill="#D81C67"/>
</svg>
