<svg width="24" height="25" viewBox="0 0 24 25" fill="none" xmlns="http://www.w3.org/2000/svg">
<path d="M24 12.2374C24 15.483 22.7357 18.5957 20.4853 20.8906C18.2348 23.1856 15.1826 24.4749 12 24.4749C8.8174 24.4749 5.76516 23.1856 3.51472 20.8906C1.26428 18.5957 0 15.483 0 12.2374C0 8.99187 1.26428 5.87923 3.51472 3.58426C5.76516 1.2893 8.8174 0 12 0C15.1826 0 18.2348 1.2893 20.4853 3.58426C22.7357 5.87923 24 8.99187 24 12.2374ZM12 5.35388C12 5.15103 11.921 4.95649 11.7803 4.81306C11.6397 4.66962 11.4489 4.58904 11.25 4.58904C11.0511 4.58904 10.8603 4.66962 10.7197 4.81306C10.579 4.95649 10.5 5.15103 10.5 5.35388V13.7671C10.5 13.9019 10.535 14.0343 10.6014 14.1509C10.6678 14.2675 10.7632 14.3641 10.878 14.431L16.128 17.4904C16.3003 17.5853 16.5022 17.6078 16.6905 17.553C16.8788 17.4981 17.0386 17.3704 17.1358 17.197C17.2329 17.0236 17.2597 16.8183 17.2104 16.625C17.1612 16.4317 17.0397 16.2658 16.872 16.1626L12 13.3235V5.35388Z" fill="#D81C67"/>
</svg>
