<svg width="36" height="36" viewBox="0 0 36 36" fill="none" xmlns="http://www.w3.org/2000/svg">
<path d="M16.2695 17.1196C16.2155 14.5633 15.6738 12.0407 14.6734 9.6876C8.28902 12.6689 3.59918 18.2939 1.99605 24.9314C2.93423 27.0809 4.29475 29.0201 5.99683 30.6337C7.61546 25.0053 11.2794 20.1852 16.2695 17.1196ZM13.675 7.66963C12.6056 5.80645 11.2428 4.12788 9.63902 2.69854C3.24058 6.2001 -0.542229 13.4493 0.849959 21.1345C3.1984 15.2915 7.76871 10.447 13.675 7.66963ZM26.8656 19.2782C27.4703 12.261 24.9461 5.39151 20.0101 0.687602C18.9765 0.568071 16.382 0.300883 13.0562 1.28526C17.1253 5.5018 19.4703 11.0877 19.6304 16.9453C21.8712 18.1774 24.3271 18.9693 26.8656 19.2782ZM18.0976 19.9462C15.9106 21.274 13.9968 23.0065 12.4586 25.0509C18.2242 29.0798 25.4312 30.3314 31.9703 28.4118C33.3768 26.5273 34.3863 24.3768 34.9375 22.0907C33.0781 22.5645 31.1679 22.8101 29.2492 22.822C25.4101 22.8149 21.5921 21.8306 18.0976 19.9462ZM11.1859 26.9564C10.1171 28.7845 9.37886 30.7814 8.92886 32.8767C12.0479 34.791 15.6918 35.6715 19.3408 35.3925C22.9898 35.1134 26.4575 33.6891 29.2492 31.3228C21.3109 32.4548 14.9546 29.579 11.1859 26.9564ZM23.8632 1.60166C27.7515 6.55166 29.664 12.936 29.1086 19.4329C31.2506 19.4374 33.3797 19.1004 35.4156 18.4345C35.4156 18.2939 35.4367 18.1532 35.4367 18.0126C35.4367 10.4329 30.6062 4.01338 23.8632 1.60166Z" fill="#D81C67"/>
</svg>
